<?xml version="1.0" standalone="no"?>
<!DOCTYPE svg PUBLIC "-//W3C//DTD SVG 20010904//EN"
 "http://www.w3.org/TR/2001/REC-SVG-20010904/DTD/svg10.dtd">
<svg version="1.0" xmlns="http://www.w3.org/2000/svg"
 width="30.000000pt" height="30.000000pt" viewBox="0 0 160.000000 160.000000"
 preserveAspectRatio="xMidYMid meet">

<g transform="translate(0.000000,160.000000) scale(0.100000,-0.100000)"
fill="#999999" stroke="none">
<path d="M1010 1478 c-29 -18 -55 -39 -58 -45 -2 -7 19 2 46 20 28 17 59 37
69 44 42 27 -7 10 -57 -19z"/>
<path d="M1090 1481 c-35 -11 -80 -36 -114 -65 -27 -22 -28 -27 -22 -72 15
-108 27 -144 51 -150 13 -3 34 -18 47 -32 12 -15 15 -21 6 -13 -9 7 -26 11
-38 9 -20 -3 -20 -4 6 -40 41 -57 61 -51 70 20 3 31 11 63 16 70 12 14 52 16
77 2 10 -5 37 -14 60 -19 39 -8 43 -7 53 14 5 12 21 28 34 34 17 7 24 19 24
38 0 25 -1 25 -17 10 -50 -46 -63 -56 -63 -51 0 3 11 20 26 36 26 32 31 85 7
81 -7 -2 -10 3 -7 11 7 18 -60 70 -130 101 -31 14 -58 25 -59 24 -1 0 -13 -4
-27 -8z m110 -64 c-9 -7 -13 -22 -11 -37 l4 -25 6 25 c4 14 15 26 25 28 12 3
16 0 11 -7 -3 -6 -11 -9 -16 -6 -5 4 -9 -4 -9 -17 0 -18 2 -20 10 -8 5 8 10
11 10 5 0 -5 7 -2 15 8 13 18 14 18 25 -3 10 -18 9 -24 -1 -31 -20 -12 -43
-11 -58 4 -11 10 -13 9 -9 -3 3 -8 15 -21 29 -27 15 -8 18 -13 8 -13 -44 0
-83 85 -52 116 9 8 18 12 22 9 3 -4 -1 -12 -9 -18z m-119 -90 c11 -21 24 -50
29 -65 10 -26 9 -26 -6 -7 -20 26 -50 83 -58 115 -9 31 5 14 35 -43z m234 -9
c-8 -38 -55 -64 -55 -30 0 10 3 13 8 6 4 -6 13 -4 25 8 11 12 13 18 5 18 -9 0
-8 4 2 10 20 13 19 13 15 -12z m-68 -50 c-3 -8 -6 -5 -6 6 -1 11 2 17 5 13 3
-3 4 -12 1 -19z"/>
<path d="M1250 1372 c0 -6 -8 -13 -17 -15 -16 -4 -16 -5 -1 -6 18 -1 34 16 24
26 -3 4 -6 1 -6 -5z"/>
<path d="M1320 1482 c0 -5 21 -32 46 -62 44 -52 45 -54 39 -104 -6 -41 -4 -49
5 -39 22 21 23 104 2 142 -10 19 -25 38 -33 41 -8 4 -24 12 -36 19 -13 6 -23
7 -23 3z"/>
<path d="M1410 1471 c0 -5 10 -34 21 -65 20 -53 21 -58 6 -103 -9 -26 -14 -49
-12 -52 10 -9 45 86 46 124 l1 40 11 -33 c9 -28 7 -40 -14 -80 -13 -26 -25
-50 -27 -54 -2 -5 0 -8 5 -8 12 0 53 63 63 96 l8 29 1 -31 c1 -21 -10 -43 -34
-71 -34 -40 -34 -42 -17 -62 16 -18 20 -19 49 -6 17 7 36 23 43 34 10 19 8 19
-26 -4 -20 -14 -42 -25 -48 -25 -6 0 -2 6 9 12 39 21 65 52 65 76 0 24 -1 24
-22 -8 -13 -18 -34 -40 -48 -49 -19 -12 -17 -6 12 26 44 49 54 82 38 113 -10
18 -14 20 -21 9 -7 -11 -9 -11 -9 -1 0 19 -40 69 -40 51 0 -8 -14 0 -30 19
-17 18 -30 28 -30 23z"/>
<path d="M1379 1227 c-8 -17 -13 -37 -11 -42 3 -14 -74 -36 -102 -29 -13 3
-27 1 -30 -5 -9 -14 -46 -15 -46 -1 0 5 7 13 16 18 14 8 14 10 -4 15 -12 3
-26 -1 -33 -9 -7 -8 -20 -12 -30 -9 -23 8 -27 -20 -4 -29 8 -3 15 -10 15 -16
0 -5 -7 -10 -15 -10 -8 0 -15 -9 -15 -19 0 -11 -8 -22 -19 -26 -10 -3 -26 -14
-36 -25 -12 -14 -31 -20 -58 -20 -22 0 -37 -3 -34 -7 4 -3 -3 -11 -16 -17 -25
-13 -35 -60 -16 -82 14 -17 60 -15 66 2 2 7 -6 10 -22 7 -18 -4 -25 -1 -25 11
0 12 10 16 47 16 25 0 43 -3 40 -7 -13 -12 48 -43 86 -43 30 0 37 4 37 20 0
11 -4 20 -10 20 -5 0 -10 -4 -10 -10 0 -5 -5 -10 -11 -10 -7 0 -8 12 -4 33 l6
32 -21 -25 -21 -25 13 29 c11 25 10 30 -6 42 -16 11 -17 16 -6 29 16 20 34 19
26 -1 -4 -9 4 -28 19 -46 22 -26 25 -27 25 -9 0 12 -4 21 -10 21 -5 0 -10 7
-10 15 0 9 6 12 17 8 11 -4 14 -3 9 5 -4 6 -2 21 4 33 9 15 9 24 1 32 -17 17
-13 27 8 27 11 0 29 -12 41 -27 12 -16 27 -29 33 -29 7 -1 18 -2 26 -3 11 -1
11 -4 1 -16 -10 -12 -9 -20 4 -40 9 -13 16 -37 16 -52 -1 -28 -1 -27 -21 10
-11 20 -24 37 -29 37 -6 0 -9 3 -9 8 5 30 -3 35 -22 12 l-20 -25 7 25 c10 37
10 45 -1 48 -5 2 -13 -7 -17 -20 -10 -37 -9 -186 2 -193 24 -15 60 -96 75
-169 14 -72 14 -83 0 -126 -9 -26 -32 -66 -52 -90 -53 -61 -8 -34 50 30 26 29
53 73 64 103 22 64 22 184 -1 246 -19 53 -19 51 -2 51 7 0 16 10 20 23 5 18 8
20 16 7 7 -11 5 -18 -6 -27 -17 -12 -13 -43 5 -43 5 0 7 -18 4 -40 -3 -23 -1
-40 4 -40 9 0 4 -58 -12 -160 -6 -32 -3 -30 41 34 139 206 147 404 20 563
l-34 43 -13 -33z m-21 -89 c-3 -7 -15 -15 -28 -16 -21 -3 -22 -2 -11 12 16 19
44 21 39 4z m-84 -4 c13 -5 14 -9 5 -20 -10 -13 -39 -20 -39 -10 0 8 12 36 15
36 2 0 11 -3 19 -6z m124 -16 c-3 -7 -12 -14 -21 -16 -12 -2 -15 1 -11 12 7
19 38 22 32 4z m32 -12 c0 -15 -18 -31 -26 -23 -7 7 7 37 17 37 5 0 9 -6 9
-14z m-113 -24 c-8 -8 -20 -11 -27 -7 -16 10 7 35 27 28 13 -5 13 -7 0 -21z
m35 -24 c-15 -15 -24 -6 -16 16 5 12 10 14 17 7 8 -8 8 -14 -1 -23z m98 12 c0
-5 -4 -10 -10 -10 -5 0 -10 5 -10 10 0 6 5 10 10 10 6 0 10 -4 10 -10z m-52
-22 c-6 -18 -28 -21 -28 -4 0 9 7 16 16 16 9 0 14 -5 12 -12z m-85 -23 c-3 -9
-8 -14 -10 -11 -3 3 -2 9 2 15 9 16 15 13 8 -4z m107 -9 c0 -11 -19 -15 -25
-6 -3 5 1 10 9 10 9 0 16 -2 16 -4z m30 -12 c0 -8 -5 -12 -10 -9 -6 4 -8 11
-5 16 9 14 15 11 15 -7z m-405 -4 c-3 -5 -14 -10 -23 -9 -14 0 -13 2 3 9 27
11 27 11 20 0z m323 -2 c-2 -6 -10 -13 -16 -14 -9 -2 -9 -1 -1 3 8 4 7 8 -2
14 -11 7 -10 9 4 9 10 0 17 -5 15 -12z m-267 -25 c-12 -20 -14 -14 -5 12 4 9
9 14 11 11 3 -2 0 -13 -6 -23z m-113 -1 c2 -7 -3 -12 -12 -12 -9 0 -16 7 -16
16 0 17 22 14 28 -4z m487 9 c3 -5 1 -12 -5 -16 -5 -3 -10 1 -10 9 0 18 6 21
15 7z m-225 -11 c0 -5 -4 -10 -10 -10 -5 0 -10 5 -10 10 0 6 5 10 10 10 6 0
10 -4 10 -10z m-203 -6 c-3 -3 -12 -4 -19 -1 -8 3 -5 6 6 6 11 1 17 -2 13 -5z
m189 -41 c-10 -10 -19 5 -10 18 6 11 8 11 12 0 2 -7 1 -15 -2 -18z m189 17
c-3 -5 -10 -10 -16 -10 -5 0 -9 5 -9 10 0 6 7 10 16 10 8 0 12 -4 9 -10z
m-173 -103 c27 -38 48 -111 47 -161 -1 -39 -2 -39 -9 13 -10 64 -36 135 -56
151 -7 7 -13 24 -13 39 1 21 2 22 6 6 3 -11 14 -33 25 -48z m153 53 c-3 -5
-11 -10 -16 -10 -6 0 -7 5 -4 10 3 6 11 10 16 10 6 0 7 -4 4 -10z m65 0 c0 -5
-4 -10 -10 -10 -5 0 -10 5 -10 10 0 6 5 10 10 10 6 0 10 -4 10 -10z m-44 -37
c-10 -10 -19 5 -10 18 6 11 8 11 12 0 2 -7 1 -15 -2 -18z m16 -25 c-7 -7 -12
-8 -12 -2 0 14 12 26 19 19 2 -3 -1 -11 -7 -17z m-37 3 c3 -5 1 -12 -5 -16 -5
-3 -10 1 -10 9 0 18 6 21 15 7z"/>
<path d="M920 1132 c0 -24 40 -55 85 -67 45 -12 47 -14 17 -14 -18 -1 -43 4
-55 10 -22 12 -22 12 -3 -10 20 -22 79 -30 90 -12 12 19 -6 39 -39 45 -19 4
-48 18 -65 32 -16 14 -30 21 -30 16z"/>
<path d="M448 1057 c15 -18 15 -125 -1 -144 -7 -10 2 -13 42 -13 65 0 101 30
101 83 0 55 -25 77 -95 84 -54 6 -59 5 -47 -10z m92 -26 c23 -44 5 -111 -30
-111 -18 0 -20 7 -20 65 0 58 2 65 20 65 10 0 24 -9 30 -19z"/>
<path d="M25 975 l0 -85 27 0 c25 0 26 2 21 40 -6 40 3 50 25 28 9 -9 12 -6
12 17 0 23 -3 26 -12 17 -20 -20 -28 -14 -28 23 0 38 13 44 42 18 17 -15 18
-15 18 5 0 20 -5 22 -52 22 l-53 0 0 -85z"/>
<path d="M305 975 c0 -68 2 -75 20 -75 18 0 20 6 18 62 -3 71 -7 88 -25 88 -9
0 -13 -21 -13 -75z"/>
<path d="M157 1033 c-2 -5 -4 -37 -5 -73 -2 -60 -1 -66 18 -66 13 0 18 5 15
16 -2 8 -5 39 -6 68 -2 48 -12 74 -22 55z"/>
<path d="M222 988 c-18 -18 -14 -34 13 -52 30 -20 24 -42 -6 -26 -12 7 -19 7
-19 1 0 -27 63 -24 73 4 6 15 -12 40 -35 47 -6 2 -8 10 -4 17 6 9 11 9 22 0
11 -9 14 -8 14 5 0 19 -40 22 -58 4z"/>
<path d="M359 986 c8 -9 11 -31 9 -51 -3 -30 -1 -35 17 -35 19 0 20 4 15 48
-4 40 -8 47 -30 50 -21 3 -22 2 -11 -12z"/>
<path d="M615 990 c-4 -6 -4 -14 0 -18 4 -4 10 -1 12 6 6 16 33 16 33 -1 0 -7
-14 -18 -31 -24 -21 -8 -30 -17 -27 -30 2 -14 14 -18 49 -20 l45 -2 -6 47 c-5
44 -7 47 -37 50 -17 2 -34 -2 -38 -8z m45 -55 c0 -8 -7 -15 -15 -15 -16 0 -20
12 -8 23 11 12 23 8 23 -8z"/>
<path d="M715 950 c0 -43 3 -50 20 -50 17 0 20 7 20 42 0 26 5 43 14 46 10 3
12 -6 10 -42 -4 -41 -2 -46 16 -46 19 0 20 4 15 48 l-5 47 -45 2 -45 2 0 -49z"/>
<path d="M838 975 c-16 -35 3 -75 36 -75 14 0 28 5 31 10 3 6 -3 10 -14 10
-22 0 -35 28 -25 54 7 18 20 21 29 6 7 -12 25 -4 25 11 0 5 -16 9 -35 9 -28 0
-38 -5 -47 -25z"/>
<path d="M325 800 l0 -60 37 0 c44 0 68 21 68 60 0 39 -24 60 -68 60 l-37 0 0
-60z m64 36 c18 -22 10 -80 -11 -84 -15 -3 -18 4 -18 47 0 52 8 62 29 37z"/>
<path d="M765 795 c0 -52 3 -65 15 -65 12 0 15 10 12 43 l-3 42 26 -42 c14
-24 30 -43 36 -43 5 0 9 22 9 49 0 27 3 56 6 65 4 10 1 16 -9 16 -12 0 -14 -9
-10 -40 3 -22 3 -40 0 -40 -4 0 -16 18 -27 40 -12 23 -28 40 -38 40 -14 0 -17
-10 -17 -65z"/>
<path d="M583 825 c-8 -23 4 -30 24 -14 15 12 16 12 10 -4 -5 -14 -2 -20 13
-24 16 -4 18 -8 9 -19 -6 -8 -18 -14 -26 -14 -8 0 -12 -4 -9 -8 5 -9 103 -8
112 1 3 3 -4 8 -16 12 -11 4 -32 24 -46 46 -25 41 -60 52 -71 24z"/>
<path d="M460 820 c-8 -5 -11 -12 -7 -16 3 -4 13 -2 20 4 8 7 17 9 20 5 13
-12 7 -21 -18 -27 -16 -4 -25 -13 -25 -26 0 -17 7 -20 40 -20 39 0 40 1 40 33
0 50 -32 71 -70 47z m40 -55 c0 -8 -7 -15 -15 -15 -16 0 -20 12 -8 23 11 12
23 8 23 -8z"/>
<path d="M897 813 c-14 -13 -6 -25 8 -13 12 10 19 10 27 2 8 -8 6 -13 -8 -18
-55 -20 -52 -53 4 -52 l37 0 -4 44 c-3 40 -5 44 -30 44 -15 0 -31 -3 -34 -7z
m43 -53 c0 -5 -7 -10 -15 -10 -8 0 -15 5 -15 10 0 6 7 10 15 10 8 0 15 -4 15
-10z"/>
<path d="M995 774 c0 -33 3 -44 15 -44 11 0 15 10 15 37 0 22 5 38 14 41 10 3
12 -5 9 -37 -3 -36 -1 -41 17 -41 19 0 21 4 16 43 -6 41 -7 42 -46 44 l-40 2
0 -45z"/>
<path d="M1107 813 c-3 -5 -5 -25 -5 -46 0 -21 -3 -41 -6 -44 -11 -11 16 -33
40 -33 12 0 30 7 39 16 20 21 4 44 -34 45 -21 1 -22 2 -6 6 29 7 47 24 41 39
-3 7 0 15 7 18 7 2 -7 5 -30 5 -23 1 -44 -2 -46 -6z m43 -23 c0 -11 -4 -20
-10 -20 -5 0 -10 9 -10 20 0 11 5 20 10 20 6 0 10 -9 10 -20z m8 -77 c2 -8 -5
-13 -17 -13 -12 0 -21 6 -21 16 0 18 31 15 38 -3z"/>
<path d="M726 801 c-4 -5 -2 -12 3 -15 5 -4 12 -2 15 3 4 5 2 12 -3 15 -5 4
-12 2 -15 -3z"/>
<path d="M690 790 c0 -5 5 -10 11 -10 5 0 7 5 4 10 -3 6 -8 10 -11 10 -2 0 -4
-4 -4 -10z"/>
<path d="M1231 703 c-6 -23 -23 -55 -36 -71 -13 -16 -23 -31 -20 -33 2 -3 -4
-5 -13 -6 -9 -1 -35 -5 -58 -8 -51 -9 -154 18 -154 40 0 8 -5 15 -11 15 -5 0
-7 -4 -4 -10 3 -6 -1 -7 -9 -4 -9 3 -16 13 -16 21 0 8 -5 13 -12 11 -7 -3 -28
6 -46 19 -51 34 -92 38 -164 15 -46 -15 -56 -20 -35 -21 15 -1 30 -7 33 -15 3
-8 13 -12 25 -9 14 4 19 0 18 -13 0 -11 -3 -14 -6 -7 -3 8 -14 11 -28 7 -13
-3 -26 0 -30 7 -5 8 -4 10 3 5 7 -4 12 -2 12 3 0 17 -30 13 -37 -5 -6 -17 15
-37 29 -27 5 2 24 -7 43 -21 45 -34 53 -75 26 -122 -12 -19 -16 -32 -11 -29
18 11 50 83 50 113 0 15 -9 38 -21 51 -24 25 -19 42 5 18 50 -49 38 -125 -28
-192 -46 -46 -155 -103 -247 -129 -98 -28 -177 -106 -193 -191 l-6 -30 11 30
c17 45 56 93 97 120 20 13 114 46 207 73 195 56 251 82 319 146 58 56 81 63
132 41 73 -31 168 -14 194 34 11 22 12 153 1 191 -7 23 -9 22 -20 -17z m-415
-252 c-19 -36 -68 -74 -115 -90 -54 -18 -60 -13 -13 10 48 24 119 99 130 138
l7 26 3 -27 c2 -15 -4 -40 -12 -57z"/>
<path d="M420 639 c0 -24 4 -38 10 -34 6 3 10 22 10 41 0 19 -4 34 -10 34 -5
0 -10 -18 -10 -41z"/>
<path d="M456 652 c6 -4 14 -14 17 -22 4 -10 6 -8 6 8 1 15 -5 22 -16 22 -11
0 -14 -3 -7 -8z"/>
<path d="M499 628 l5 -33 7 30 c4 18 7 22 8 11 1 -15 4 -17 12 -9 14 14 3 33
-20 33 -14 0 -17 -6 -12 -32z"/>
<path d="M558 653 c10 -4 9 -8 -4 -17 -12 -9 -14 -15 -6 -20 7 -4 12 -2 12 4
0 6 5 8 10 5 6 -3 10 3 10 14 0 14 -6 21 -17 20 -12 0 -13 -2 -5 -6z"/>
<path d="M590 640 c0 -25 20 -27 21 -2 0 14 2 14 9 -3 8 -19 9 -19 9 3 1 16
-5 22 -19 22 -13 0 -20 -7 -20 -20z"/>
<path d="M920 650 c0 -5 7 -7 15 -4 8 4 15 8 15 10 0 2 -7 4 -15 4 -8 0 -15
-4 -15 -10z"/>
<path d="M962 640 c0 -14 2 -19 5 -12 2 6 2 18 0 25 -3 6 -5 1 -5 -13z"/>
<path d="M991 638 c0 -22 1 -22 9 -3 7 17 9 17 9 3 1 -10 6 -18 12 -18 17 0 5
34 -14 38 -12 3 -17 -3 -16 -20z"/>
<path d="M1040 641 c0 -11 4 -22 9 -25 5 -4 7 3 4 14 -4 16 -2 19 12 13 13 -4
16 -3 11 5 -12 19 -36 14 -36 -7z"/>
<path d="M659 446 c-54 -52 -96 -66 -200 -66 -90 0 -119 -16 -137 -78 -19 -62
-14 -83 8 -40 30 55 61 75 134 82 72 8 170 50 201 87 30 34 48 59 44 59 -2 0
-25 -20 -50 -44z"/>
</g>
</svg>
